<?xml version="1.0" encoding="utf-8"?>
<!-- Generator: Adobe Illustrator 20.0.0, SVG Export Plug-In . SVG Version: 6.00 Build 0)  -->
<svg version="1.1" id="Warstwa_1" xmlns="http://www.w3.org/2000/svg" xmlns:xlink="http://www.w3.org/1999/xlink" x="0px" y="0px"
	 viewBox="0 0 83.4 83.4" style="enable-background:new 0 0 83.4 83.4;" xml:space="preserve">
<style type="text/css">
	.st0{fill:#FFFFFF;}
</style>
<g>
	<path class="st0" d="M76.1,65.1c0-0.4-0.2-0.9-0.5-1.3c-2.4-2.9-4.4-5.4-5.9-7.5c0.9-1.8,1.6-3.4,2.1-5l10.1-1.6
		c0.4,0,0.7-0.3,1-0.7c0.3-0.4,0.5-0.8,0.5-1.3V35.8c0-0.5-0.1-0.9-0.5-1.3c-0.3-0.4-0.7-0.6-1.1-0.7L72,32.3
		c-0.5-1.5-1.2-3.3-2.2-5.3c0.7-1,1.6-2.3,2.9-3.9c1.3-1.7,2.2-2.8,2.7-3.5c0.3-0.4,0.5-0.9,0.5-1.2c0-1.2-3.1-4.7-9.4-10.4
		c-0.4-0.3-0.9-0.5-1.4-0.5c-0.5,0-1,0.2-1.3,0.5l-7.7,5.8c-1.8-0.9-3.4-1.6-4.9-2l-1.5-10c0-0.4-0.3-0.8-0.7-1.1
		C48.7,0.2,48.3,0,47.8,0H35.7c-1,0-1.7,0.5-2,1.6c-0.5,2-1,5.3-1.5,10c-1.9,0.6-3.5,1.3-5,2.1l-7.5-5.9c-0.4-0.3-0.9-0.5-1.4-0.5
		c-0.8,0-2.5,1.3-5.1,3.8c-2.6,2.6-4.4,4.5-5.3,5.8c-0.3,0.3-0.5,0.8-0.5,1.3c0,0.4,0.1,0.8,0.5,1.3c2.4,2.9,4.4,5.4,5.9,7.5
		c-0.9,1.8-1.6,3.4-2.1,5L1.5,33.6c-0.4,0-0.7,0.3-1,0.7C0.2,34.7,0,35.2,0,35.6v12.1c0,0.5,0.2,0.9,0.5,1.3
		c0.3,0.4,0.7,0.6,1.1,0.6l9.9,1.6c0.5,1.7,1.3,3.4,2.3,5.3c-0.7,1-1.7,2.3-3.1,4c-1.3,1.7-2.2,2.8-2.7,3.5
		c-0.3,0.4-0.5,0.9-0.5,1.2c0,1.2,3.1,4.7,9.4,10.4c0.4,0.3,0.9,0.5,1.4,0.5c0.6,0,1-0.1,1.3-0.5l7.7-5.8c1.8,0.9,3.4,1.6,4.9,2
		l1.5,10c0,0.4,0.3,0.8,0.6,1.1c0.4,0.3,0.8,0.5,1.3,0.5h12.1c1,0,1.7-0.5,2-1.6c0.5-2,1-5.4,1.5-10.1c1.7-0.5,3.4-1.2,5-2l7.5,5.9
		c0.4,0.3,0.9,0.5,1.4,0.5c0.8,0,2.5-1.3,5.1-3.9c2.6-2.6,4.4-4.5,5.4-5.8C75.9,66,76.1,65.6,76.1,65.1L76.1,65.1z M53.5,53.5
		c-3.3,3.3-7.2,4.9-11.8,4.9c-4.6,0-8.5-1.6-11.8-4.9c-3.3-3.3-4.9-7.2-4.9-11.8c0-4.6,1.6-8.5,4.9-11.8c3.3-3.3,7.2-4.9,11.8-4.9
		c4.6,0,8.5,1.6,11.8,4.9c3.3,3.3,4.9,7.2,4.9,11.8C58.4,46.3,56.8,50.2,53.5,53.5L53.5,53.5z M53.5,53.5"/>
</g>
</svg>
